<svg width="15" height="15" viewBox="0 0 15 15" fill="none" xmlns="http://www.w3.org/2000/svg">
<path fill-rule="evenodd" clip-rule="evenodd" d="M4.1854 3.04718C5.10762 2.357 6.25265 1.94824 7.49315 1.94824C10.545 1.94824 13.019 4.42226 13.019 7.4741C13.019 8.71461 12.6102 9.85964 11.9201 10.7818L11.7006 10.5624L4.19064 3.05242L4.1854 3.04718ZM3.11677 4.09987C2.39605 5.03327 1.96729 6.20361 1.96729 7.4741C1.96729 10.526 4.4413 13 7.49315 13C8.76364 13 9.93398 12.5712 10.8674 11.8505L10.6399 11.623L3.12998 4.11308L3.11677 4.09987ZM7.49315 0.448242C3.61287 0.448242 0.467285 3.59383 0.467285 7.4741C0.467285 11.3544 3.61287 14.5 7.49315 14.5C11.3734 14.5 14.519 11.3544 14.519 7.4741C14.519 3.59383 11.3734 0.448242 7.49315 0.448242Z" fill="#FF7073"/>
</svg>
