<svg width="37" height="36" viewBox="0 0 37 36" fill="none" xmlns="http://www.w3.org/2000/svg">
<rect x="0.75" y="0.25" width="35.5" height="35.5" rx="17.75" fill="black"/>
<rect x="0.75" y="0.25" width="35.5" height="35.5" rx="17.75" stroke="#2C2C2E" stroke-width="0.5"/>
<path fill-rule="evenodd" clip-rule="evenodd" d="M6.72872 16.6333C7.40647 10.7329 12.4183 6.15071 18.5003 6.15071C21.8653 6.15071 24.9028 7.55335 27.0598 9.80586L18.3682 9.8196H18.3671C14.3153 9.82013 10.9516 12.7664 10.301 16.6333H6.72872ZM6.72871 19.367C7.40639 25.2675 12.4182 29.8497 18.5003 29.8497C21.8719 29.8497 24.9147 28.4416 27.0725 26.1813H18.3682C14.3157 26.1813 10.9513 23.2346 10.3009 19.367H6.72871ZM29.0263 23.4476C29.673 22.2005 30.1046 20.824 30.2719 19.367H13.0939C13.7002 21.7139 15.8318 23.4476 18.3682 23.4476H29.0263ZM30.2719 16.6333C30.1038 15.17 29.6692 13.7878 29.0178 12.5365L18.3692 12.5533H18.3682C15.832 12.5533 13.7006 14.2867 13.094 16.6333H30.2719ZM18.5003 3.41699C10.4462 3.41699 3.91699 9.94614 3.91699 18.0002C3.91699 26.0543 10.4462 32.5835 18.5003 32.5835C26.5545 32.5835 33.0837 26.0543 33.0837 18.0002C33.0837 9.94614 26.5545 3.41699 18.5003 3.41699Z" fill="white"/>
</svg>
